<?xml version="1.0" ?><!DOCTYPE svg  PUBLIC '-//W3C//DTD SVG 1.1//EN'  'http://www.w3.org/Graphics/SVG/1.1/DTD/svg11.dtd'><svg width="32px" height="32px" viewBox="0 0 32 32" enable-background="new 0 0 32 32" version="1.1" xml:space="preserve" xmlns="http://www.w3.org/2000/svg" xmlns:xlink="http://www.w3.org/1999/xlink"><g id="Layer_2"/><g id="Layer_3"/><g id="Layer_4"/><g id="Layer_5"/><g id="Layer_6"/><g id="Layer_7"/><g id="Layer_8"/><g id="Layer_9"/><g id="Layer_10"/><g id="Layer_11"/><g id="Layer_12"/><g id="Layer_13"/><g id="Layer_14"/><g id="Layer_15"/><g id="Layer_16"/><g id="Layer_17"/><g id="Layer_18"/><g id="Layer_19"/><g id="Layer_20"/><g id="Layer_21"/><g id="Layer_22"><g><path d="M20,3v7c0,0.55-0.45,1-1,1h-6c-0.55,0-1-0.45-1-1V3c0-1.1,0.9-2,2-2h4C19.1,1,20,1.9,20,3z" fill="#96CEE5"/></g><g><rect fill="#4391B2" height="2" width="8" x="12" y="4"/></g><path d="M20,22v7c0,1.1-0.9,2-2,2h-4c-1.1,0-2-0.9-2-2v-7c0-0.55,0.45-1,1-1h6C19.55,21,20,21.45,20,22z" fill="#96CEE5"/><g><rect fill="#4391B2" height="2" width="8" x="12" y="26"/></g><g><path d="M11,13v6c0,0.55-0.45,1-1,1H3c-1.1,0-2-0.9-2-2v-4c0-1.1,0.9-2,2-2h7C10.55,12,11,12.45,11,13z" fill="#96CEE5"/></g><g><rect fill="#4391B2" height="8" width="2" x="4" y="12"/></g><g><path d="M31,14v4c0,1.1-0.9,2-2,2h-7c-0.55,0-1-0.45-1-1v-6c0-0.55,0.45-1,1-1h7C30.1,12,31,12.9,31,14z" fill="#96CEE5"/></g><g><rect fill="#4391B2" height="8" width="2" x="26" y="12"/></g><g><path d="M23,12v8c0,1.65-1.35,3-3,3h-8c-1.65,0-3-1.35-3-3v-8c0-1.65,1.35-3,3-3h8C21.65,9,23,10.35,23,12z" fill="#48B1DD"/></g></g><g id="Layer_23"/><g id="Layer_24"/><g id="Layer_25"/><g id="Layer_26"/><g id="Layer_27"/><g id="Layer_28"/><g id="Layer_29"/><g id="Layer_30"/><g id="Layer_31"/></svg>